<svg id="Layer_1" data-name="Layer 1" xmlns="http://www.w3.org/2000/svg" viewBox="0 0 427.4 332.93"><defs><style>.cls-1{fill:#bad539;}.cls-2{fill:#4b70ad;}</style></defs><title>mydohme</title><path class="cls-1" d="M283.82,282.87a22.85,22.85,0,1,1,11.15-.12v30.4l13.17,8.7,115.38-69.24v-92.9a170.71,170.71,0,0,0-93.23,9.9v33.55l17.22,17.22a22.89,22.89,0,1,1-7.88,7.88l-20.48-20.48V174.62a169.93,169.93,0,0,0-93.09,176.69l57.76-38.16Z" transform="translate(-182.3 -139.43)"/><path class="cls-1" d="M434.66,252.64l63.13,47,.8-21.05v-.15a6.12,6.12,0,0,1,6.35-5.88h0l29.09,1.27h.11a5.85,5.85,0,0,1,5.58,5.89l-.49,50.81L562.72,348a169.91,169.91,0,0,0-128.06-186Z" transform="translate(-182.3 -139.43)"/><polygon class="cls-2" points="68.28 259.13 47.96 259.13 34.52 319.1 21 259.13 0.68 259.13 0.68 332.93 15.33 332.93 15.33 284.3 25.63 332.93 43.42 332.93 53.63 284.3 53.63 332.93 68.28 332.93 68.28 259.13"/><path class="cls-2" d="M302.26,398.56h-15q-3.18,10.77-7.76,35.33-4.5-24.56-7.72-35.33h-15l15.4,48.59v25.21h14.65V447.1Z" transform="translate(-182.3 -139.43)"/><path class="cls-2" d="M328.52,398.56v73.8h21.59q9.08,0,15.13-4.84a16.55,16.55,0,0,0,6.46-13.61V408.64a9.38,9.38,0,0,0-3.23-7.16,10.82,10.82,0,0,0-7.59-2.92ZM357,453.91q0,4.8-6.93,4.8h-6.94v-46.5H357Z" transform="translate(-182.3 -139.43)"/><polygon class="cls-2" points="254.27 332.93 268.92 332.93 268.92 302.88 282.79 302.88 282.79 332.93 297.44 332.93 297.44 259.13 282.79 259.13 282.79 289.18 268.92 289.18 268.92 259.13 254.27 259.13 254.27 332.93"/><path class="cls-2" d="M392.69,398.56a10.86,10.86,0,0,0-7.59,2.92,9.37,9.37,0,0,0-3.22,7.16v53.64a9.35,9.35,0,0,0,3.22,7.15,10.87,10.87,0,0,0,7.59,2.93h21.55a10.83,10.83,0,0,0,7.59-2.93,9.36,9.36,0,0,0,3.23-7.15V408.64a9.38,9.38,0,0,0-3.23-7.16,10.82,10.82,0,0,0-7.59-2.92Zm17.71,60.15H396.53v-46.5H410.4Z" transform="translate(-182.3 -139.43)"/><polygon class="cls-2" points="356.31 259.13 342.88 319.1 329.36 259.13 309.04 259.13 309.04 332.93 323.69 332.93 323.69 284.3 333.98 332.93 351.78 332.93 361.98 284.3 361.98 332.93 376.64 332.93 376.64 259.13 356.31 259.13"/><polygon class="cls-2" points="388.32 332.93 427.4 332.93 427.4 319.27 402.98 319.27 402.98 302.88 423.3 302.88 423.3 289.18 402.98 289.18 402.98 272.78 427.4 272.78 427.4 259.13 388.32 259.13 388.32 332.93"/><path class="cls-2" d="M185.85,383.75,289.4,332l103.54,51.74a2.46,2.46,0,0,0,2.46-4.26l-73.21-48.36,101.33-56.25v24a22.86,22.86,0,1,0,11.14.12V275.81l65.5,42.12.29.19a6.57,6.57,0,0,0,10.1-5.47l.33-27.56,17.15.41.46,47.73v.26a5.06,5.06,0,0,0,2.32,4.16l71.51,46a2.47,2.47,0,0,0,3.3-.6,2.47,2.47,0,0,0-.51-3.44l-32.48-24.2a181.69,181.69,0,1,0-356.45,2.43l-32.79,21.66a2.46,2.46,0,0,0-1.09,2.13,2.37,2.37,0,0,0,.25,1A2.46,2.46,0,0,0,185.85,383.75Zm103.3-111.39a11.72,11.72,0,1,1,11.72-11.72A11.74,11.74,0,0,1,289.15,272.36Zm151.42,48.77a11.73,11.73,0,1,1-11.72-11.72A11.74,11.74,0,0,1,440.57,321.13ZM564,327a171.35,171.35,0,0,1-1.3,21l-23.45-17.48.49-50.81a5.85,5.85,0,0,0-5.58-5.89h-.11L505,272.58h0a6.12,6.12,0,0,0-6.35,5.88v.15l-.8,21.05-63.13-47V162.05A169.91,169.91,0,0,1,564,327Zm-339.7,0a169.83,169.83,0,0,1,94.83-152.41v33.16l20.48,20.48a22.89,22.89,0,1,0,7.88-7.88l-17.22-17.22V169.61a170.71,170.71,0,0,1,93.23-9.9v92.9L308.14,321.85,295,313.15v-30.4a22.88,22.88,0,1,0-11.15.12v30.28l-57.76,38.16A170.59,170.59,0,0,1,224.32,327Zm134.92-98.76A11.73,11.73,0,1,1,347.52,240,11.74,11.74,0,0,1,359.24,228.27Z" transform="translate(-182.3 -139.43)"/></svg>